<?xml version="1.0" standalone="no"?>
<!DOCTYPE svg PUBLIC "-//W3C//DTD SVG 20010904//EN"
 "http://www.w3.org/TR/2001/REC-SVG-20010904/DTD/svg10.dtd">
<svg version="1.0" xmlns="http://www.w3.org/2000/svg"
 width="100.000000pt" height="53.000000pt" viewBox="0 0 100.000000 53.000000"
 preserveAspectRatio="xMidYMid meet">

<g transform="translate(0.000000,53.000000) scale(0.100000,-0.100000)"
fill="#000000" stroke="none">
<path d="M5 316 l0 -206 40 0 40 0 -3 65 -4 65 56 0 c116 0 170 50 163 153 -3
49 -8 63 -35 90 -32 32 -33 32 -145 35 l-112 4 0 -206z m195 114 c26 -26 26
-74 0 -100 -15 -15 -33 -20 -70 -20 l-50 0 0 70 0 70 50 0 c37 0 55 -5 70 -20z"/>
<path d="M745 501 c-187 -86 -135 -372 70 -389 62 -5 131 16 160 48 18 20 17
21 -5 45 l-23 24 -28 -20 c-69 -49 -157 -28 -190 45 -23 51 -24 78 -2 123 33
69 105 91 178 52 l39 -21 22 28 c27 33 24 40 -30 65 -53 24 -139 24 -191 0z"/>
<path d="M460 55 c0 -5 5 -17 10 -25 5 -8 10 -10 10 -5 0 6 -5 17 -10 25 -5 8
-10 11 -10 5z"/>
<path d="M505 49 c-11 -16 -1 -19 13 -3 7 8 8 14 3 14 -5 0 -13 -5 -16 -11z"/>
<path d="M525 20 c3 -5 8 -10 11 -10 2 0 4 5 4 10 0 6 -5 10 -11 10 -5 0 -7
-4 -4 -10z"/>
<path d="M347 9 c7 -7 15 -10 18 -7 3 3 -2 9 -12 12 -14 6 -15 5 -6 -5z"/>
</g>
</svg>
