<svg xmlns="http://www.w3.org/2000/svg" width="43.157" height="43.008" viewBox="0 0 43.157 43.008"><defs><style>.a{fill:none;stroke:#000;stroke-width:3px;}</style></defs><path class="a" d="M44.79,35.779c-.656-.634-1.934-1.9-3.066-3.022l-2.044-2a4.445,4.445,0,0,0-6.067-.134l-.788.712a2.834,2.834,0,0,1-1.81.8A3.632,3.632,0,0,1,28.68,31.09c-2.01-1.766-5.823-5.557-7.623-7.523a3.388,3.388,0,0,1-.478-4.445l.588-.656A4.445,4.445,0,0,0,21,12.332L15.733,7.111A3.956,3.956,0,0,0,12.844,6a6.823,6.823,0,0,0-3.51,1.112c-4.733,3.1-3.056,10-3,10.233C7.622,23.277,17.1,32.9,18.2,34s11.2,10.755,16.968,11.8a11.622,11.622,0,0,0,2.222.2,12.029,12.029,0,0,0,1.712-.122,7.779,7.779,0,0,0,6.043-3.71A5.515,5.515,0,0,0,44.79,35.779Z" transform="translate(-4.494 -4.498)"/></svg>