<svg xmlns="http://www.w3.org/2000/svg" width="23" height="23" viewBox="0 0 23 23">
  <g id="Group_8357" data-name="Group 8357" transform="translate(-277 -1311)">
    <circle id="Ellipse_21" data-name="Ellipse 21" cx="11.5" cy="11.5" r="11.5" transform="translate(277 1311)" fill="#4b4096"/>
    <path id="Chevron" d="M-374.325,2070.992a.674.674,0,0,1-.347-.1.675.675,0,0,1-.231-.926l2.942-3.029-2.942-3.028a.675.675,0,0,1,.231-.927.675.675,0,0,1,.926.231l3.151,3.376a.676.676,0,0,1,0,.7l-3.151,3.376A.674.674,0,0,1-374.325,2070.992Z" transform="translate(662.099 -744.341)" fill="#fff"/>
  </g>
</svg>
