<svg xmlns="http://www.w3.org/2000/svg" width="20.7" height="20.7" viewBox="0 0 20.7 20.7">
  <path id="Icon_material-local-offer" data-name="Icon material-local-offer" d="M21.634,12.2l-8.64-8.64A1.908,1.908,0,0,0,11.64,3H4.92A1.926,1.926,0,0,0,3,4.92v6.72A1.916,1.916,0,0,0,3.566,13l8.64,8.64a1.908,1.908,0,0,0,1.354.557,1.877,1.877,0,0,0,1.354-.566l6.72-6.72A1.877,1.877,0,0,0,22.2,13.56a1.939,1.939,0,0,0-.566-1.363ZM6.36,7.8A1.44,1.44,0,1,1,7.8,6.36,1.438,1.438,0,0,1,6.36,7.8Z" transform="translate(-2.25 -2.25)" fill="none" stroke="#000" stroke-width="1.5"/>
</svg>
