<svg xmlns="http://www.w3.org/2000/svg" width="22" height="18" viewBox="0 0 22 18">
  <g id="Group_15422" data-name="Group 15422" transform="translate(-20 -16)">
    <g id="Rectangle_5674" data-name="Rectangle 5674" transform="translate(20 16)" fill="#fafafa" stroke="#000" stroke-width="1">
      <rect width="22" height="18" rx="3" stroke="none"/>
      <rect x="0.5" y="0.5" width="21" height="17" rx="2.5" fill="none"/>
    </g>
    <line id="Line_329" data-name="Line 329" x2="21" transform="translate(20.5 19.5)" fill="none" stroke="#000" stroke-width="1"/>
    <g id="Polygon_4" data-name="Polygon 4" transform="translate(24.93 23.93) rotate(-30)" fill="#fff">
      <path d="M 6.984354972839355 6.352743148803711 L 0.8624151349067688 6.352743148803711 L 3.923385143280029 1.006323337554932 L 6.984354972839355 6.352743148803711 Z" stroke="none"/>
      <path d="M 3.923384428024292 2.012639999389648 L 1.7248215675354 5.852743148803711 L 6.1219482421875 5.852743148803711 L 3.923384428024292 2.012639999389648 M 3.923385143280029 0.5063209533691406 C 4.09233283996582 0.5063209533691406 4.261280059814453 0.5901784896850586 4.35730504989624 0.7578930854797363 L 7.418275356292725 6.104313373565674 C 7.609115123748779 6.437643051147461 7.368454933166504 6.852743148803711 6.984354972839355 6.852743148803711 L 0.8624153137207031 6.852743148803711 C 0.4783153533935547 6.852743148803711 0.2376551628112793 6.437643051147461 0.428494930267334 6.104313373565674 L 3.489465236663818 0.7578930854797363 C 3.585490226745605 0.5901784896850586 3.754437446594238 0.5063209533691406 3.923385143280029 0.5063209533691406 Z" stroke="none" fill="#000"/>
    </g>
  </g>
</svg>
