<svg xmlns="http://www.w3.org/2000/svg" width="16.72" height="20.5" viewBox="0 0 16.72 20.5">
  <g id="My-Quotes-icon" transform="translate(-78.524 -67.75)">
    <path id="Path_3866" data-name="Path 3866" d="M87.106,68H78.774V86.86A1.142,1.142,0,0,0,79.914,88H94.994V75.88Zm.154.9,1.9,1.9v3.691h.526V71.326l1.93,1.928v1.237h.526V73.78l1.948,1.946h-6.22a.615.615,0,0,1-.614-.614ZM79.914,87.474a.615.615,0,0,1-.614-.614V68.526h7.434v6.585a1.142,1.142,0,0,0,1.14,1.14h6.593V87.474Z" fill="#ddd" stroke="#000" stroke-width="0.5"/>
    <rect id="Rectangle_1688" data-name="Rectangle 1688" width="9.416" height="0.526" transform="translate(82.176 78.772)" fill="#ddd" stroke="#000" stroke-width="0.5"/>
    <rect id="Rectangle_1689" data-name="Rectangle 1689" width="9.416" height="0.526" transform="translate(82.176 81.368)" fill="#ddd" stroke="#000" stroke-width="0.5"/>
    <rect id="Rectangle_1690" data-name="Rectangle 1690" width="9.416" height="0.526" transform="translate(82.176 83.965)" fill="#ddd" stroke="#000" stroke-width="0.5"/>
  </g>
</svg>
