<svg xmlns="http://www.w3.org/2000/svg" width="22" height="18" viewBox="0 0 22 18">
  <g id="Group_15422" data-name="Group 15422" transform="translate(-20 -16)">
    <g id="Rectangle_5674" data-name="Rectangle 5674" transform="translate(20 16)" fill="#fafafa" stroke="#000" stroke-width="1">
      <rect width="22" height="18" rx="3" stroke="none"/>
      <rect x="0.5" y="0.5" width="21" height="17" rx="2.5" fill="none"/>
    </g>
    <line id="Line_329" data-name="Line 329" x2="21" transform="translate(20.5 19.5)" fill="none" stroke="#000" stroke-width="1"/>
    <g id="my-profile-icon" transform="translate(27.081 21.859)">
      <g id="User_Loggedin" data-name="User Loggedin" transform="translate(0 -0.403)">
        <g id="Path_3895" data-name="Path 3895" transform="translate(0 4.361)" fill="#fff">
          <path d="M 6.188583374023438 4.136958122253418 L 1.650283575057983 4.136958122253418 C 1.016013622283936 4.136958122253418 0.5000035762786865 3.667878389358521 0.5000035762786865 3.091308355331421 C 0.5000035762786865 1.662458300590515 1.756333589553833 0.4999983310699463 3.300573587417603 0.4999983310699463 L 3.948883533477783 0.4999983310699463 L 4.538293361663818 0.4999983310699463 C 6.082533359527588 0.4999983310699463 7.338863372802734 1.662458300590515 7.338863372802734 3.091308355331421 C 7.338863372802734 3.667878389358521 6.822853565216064 4.136958122253418 6.188583374023438 4.136958122253418 Z" stroke="none"/>
          <path d="M 3.300573825836182 0.9999983310699463 C 2.032033443450928 0.9999983310699463 1.000003814697266 1.938158273696899 1.000003814697266 3.091308355331421 C 1.000003814697266 3.392178297042847 1.291713714599609 3.636958360671997 1.650283813476562 3.636958360671997 L 6.188583374023438 3.636958360671997 C 6.547153472900391 3.636958360671997 6.838863372802734 3.392178297042847 6.838863372802734 3.091308355331421 C 6.838863372802734 1.938158273696899 5.806833267211914 0.9999983310699463 4.538293838500977 0.9999983310699463 L 3.300573825836182 0.9999983310699463 M 3.300573825836182 -1.430511474609375e-06 L 4.538293838500977 -1.430511474609375e-06 C 6.361143589019775 -1.430511474609375e-06 7.838863372802734 1.384028434753418 7.838863372802734 3.091308355331421 C 7.838863372802734 3.944948434829712 7.100003719329834 4.636958122253418 6.188583374023438 4.636958122253418 L 1.650283813476562 4.636958122253418 C 0.7388534545898438 4.636958122253418 3.814697265625e-06 3.944948434829712 3.814697265625e-06 3.091308355331421 C 3.814697265625e-06 1.384028434753418 1.477713584899902 -1.430511474609375e-06 3.300573825836182 -1.430511474609375e-06 Z" stroke="none" fill="#000"/>
        </g>
        <g id="Path_4568" data-name="Path 4568" transform="translate(1.244 0)" fill="#fff">
          <path d="M 2.63063907623291 4.761279106140137 C 1.455799102783203 4.761279106140137 0.499999076128006 3.805479049682617 0.499999076128006 2.63063907623291 C 0.499999076128006 1.455799102783203 1.455799102783203 0.499999076128006 2.63063907623291 0.499999076128006 C 3.805479049682617 0.499999076128006 4.761279106140137 1.455799102783203 4.761279106140137 2.63063907623291 C 4.761279106140137 3.805479049682617 3.805479049682617 4.761279106140137 2.63063907623291 4.761279106140137 Z" stroke="none"/>
          <path d="M 2.63063907623291 0.9999990463256836 C 1.731499195098877 0.9999990463256836 0.9999990463256836 1.731499195098877 0.9999990463256836 2.63063907623291 C 0.9999990463256836 3.529778957366943 1.731499195098877 4.261279106140137 2.63063907623291 4.261279106140137 C 3.529778957366943 4.261279106140137 4.261279106140137 3.529778957366943 4.261279106140137 2.63063907623291 C 4.261279106140137 1.731499195098877 3.529778957366943 0.9999990463256836 2.63063907623291 0.9999990463256836 M 2.63063907623291 -9.5367431640625e-07 C 4.083498954772949 -9.5367431640625e-07 5.261279106140137 1.177779197692871 5.261279106140137 2.63063907623291 C 5.261279106140137 4.083498954772949 4.083498954772949 5.261279106140137 2.63063907623291 5.261279106140137 C 1.177779197692871 5.261279106140137 -9.5367431640625e-07 4.083498954772949 -9.5367431640625e-07 2.63063907623291 C -9.5367431640625e-07 1.177779197692871 1.177779197692871 -9.5367431640625e-07 2.63063907623291 -9.5367431640625e-07 Z" stroke="none" fill="#000"/>
        </g>
      </g>
    </g>
  </g>
</svg>
