<svg xmlns="http://www.w3.org/2000/svg" width="19" height="16" viewBox="0 0 19 16">
  <g id="Group_15498" data-name="Group 15498" transform="translate(-20 -15.87)">
    <g id="Rectangle_5674" data-name="Rectangle 5674" transform="translate(20 15.87)" fill="#fafafa" stroke="#000" stroke-width="1">
      <rect width="19" height="16" rx="3" stroke="none"/>
      <rect x="0.5" y="0.5" width="18" height="15" rx="2.5" fill="none"/>
    </g>
    <line id="Line_329" data-name="Line 329" x2="18.515" transform="translate(20.441 19.086)" fill="none" stroke="#000" stroke-width="1"/>
    <g id="Polygon_4" data-name="Polygon 4" transform="translate(24.346 22.991) rotate(-30)" fill="#fff">
      <path d="M 6.055635452270508 5.54166841506958 L 0.862415611743927 5.54166841506958 L 3.459025621414185 1.006328344345093 L 6.055635452270508 5.54166841506958 Z" stroke="none"/>
      <path d="M 3.459024906158447 2.012643337249756 L 1.724822998046875 5.04166841506958 L 5.193228244781494 5.04166841506958 L 3.459024906158447 2.012643337249756 M 3.459025621414185 0.5063257217407227 C 3.627973079681396 0.5063257217407227 3.796920537948608 0.5901832580566406 3.892945528030396 0.7578983306884766 L 6.489555835723877 5.293238162994385 C 6.680395603179932 5.62656831741333 6.439735412597656 6.04166841506958 6.055635452270508 6.04166841506958 L 0.8624157905578613 6.04166841506958 C 0.4783158302307129 6.04166841506958 0.2376556396484375 5.62656831741333 0.4284954071044922 5.293238162994385 L 3.025105714797974 0.7578983306884766 C 3.121130704879761 0.5901832580566406 3.290078163146973 0.5063257217407227 3.459025621414185 0.5063257217407227 Z" stroke="none" fill="#000"/>
    </g>
  </g>
</svg>
