<svg xmlns="http://www.w3.org/2000/svg" width="27.333" height="31.197" viewBox="0 0 27.333 31.197">
  <g id="Group_8413" data-name="Group 8413" transform="translate(-909.656 -781.8)">
    <g id="noun-details-1251525" transform="translate(909.656 781.8)">
      <path id="Path_4499" data-name="Path 4499" d="M166.072,43.512H146.865a4.063,4.063,0,0,0-4.063,4.063v23.07a4.063,4.063,0,0,0,4.063,4.063h19.207a4.063,4.063,0,0,0,4.063-4.063V47.575a4.063,4.063,0,0,0-4.063-4.063Zm1.847,27.134a1.847,1.847,0,0,1-1.847,1.847H146.865a1.847,1.847,0,0,1-1.847-1.847V47.576a1.847,1.847,0,0,1,1.847-1.847h19.207a1.847,1.847,0,0,1,1.847,1.847Z" transform="translate(-142.802 -43.512)"/>
    </g>
    <path id="Path_4506" data-name="Path 4506" d="M209.577,266h-1.828a1.108,1.108,0,1,0,0,2.216h1.828a1.108,1.108,0,1,0,0-2.216Z" transform="translate(707.067 530.475)"/>
    <path id="Path_4507" data-name="Path 4507" d="M307.563,266H296.737a1.108,1.108,0,1,0,0,2.216h10.826a1.108,1.108,0,1,0,0-2.216Z" transform="translate(623.948 530.475)" fill="#faba27"/>
    <path id="Path_4508" data-name="Path 4508" d="M209.577,165.2h-1.828a1.108,1.108,0,1,0,0,2.216h1.828a1.108,1.108,0,0,0,0-2.216Z" transform="translate(707.227 624.626)"/>
    <path id="Path_4509" data-name="Path 4509" d="M307.563,165.2H296.737a1.108,1.108,0,1,0,0,2.216h10.826a1.108,1.108,0,1,0,0-2.216Z" transform="translate(623.948 624.626)" fill="#faba27"/>
    <path id="Path_4510" data-name="Path 4510" d="M209.577,366.8h-1.828a1.108,1.108,0,1,0,0,2.216h1.828a1.108,1.108,0,1,0,0-2.216Z" transform="translate(707.067 436.323)"/>
    <path id="Path_4511" data-name="Path 4511" d="M307.563,366.8H296.737a1.108,1.108,0,1,0,0,2.216h10.826a1.108,1.108,0,1,0,0-2.216Z" transform="translate(623.948 436.323)" fill="#faba27"/>
  </g>
</svg>
