<svg xmlns="http://www.w3.org/2000/svg" width="26.117" height="39.917" viewBox="0 0 26.117 39.917">
  <g id="Group_8429" data-name="Group 8429" transform="translate(-643.074 -698)">
    <g id="noun-hand-cursor-4409824" transform="translate(476.271 698.334)">
      <circle id="Ellipse_393" data-name="Ellipse 393" cx="7" cy="7" r="7" transform="translate(169.729 -0.334)" fill="#faba27"/>
      <path id="Path_4497" data-name="Path 4497" d="M174.656,84.911a.541.541,0,0,1-.992.294l-2.782-3.516a1.79,1.79,0,0,0-1.069-.658,1.387,1.387,0,0,0-1.654,1.084,2.632,2.632,0,0,0,.2,1.415,52.039,52.039,0,0,0,2.835,5.606c.773,1.392,1.556,2.8,2.257,4.262a8.029,8.029,0,0,0,4.173,3.867,10.975,10.975,0,0,0,4.512.86,10.8,10.8,0,0,0,4.451-1.018,7.739,7.739,0,0,0,3.865-3.9,14.766,14.766,0,0,0,.917-2.74,13.276,13.276,0,0,0,.215-3.3V79.694a1.712,1.712,0,0,0-3.424,0v2.95a.539.539,0,1,1-1.079,0V77.805a1.712,1.712,0,0,0-3.424,0v3.153a.539.539,0,0,1-1.079,0V75.42a1.712,1.712,0,0,0-3.424,0v4.142a.539.539,0,0,1-1.079,0V67.3a1.711,1.711,0,0,0-3.423,0V84.91Zm-1.079-1.546V67.3a2.79,2.79,0,0,1,5.58,0v5.921a2.791,2.791,0,0,1,4.5,2.2v.186a2.792,2.792,0,0,1,4.487,1.9,2.79,2.79,0,0,1,4.518,2.188v7.37a14.84,14.84,0,0,1-.24,3.63,15.883,15.883,0,0,1-.98,2.938,8.8,8.8,0,0,1-4.393,4.442,11.869,11.869,0,0,1-4.9,1.124,12.064,12.064,0,0,1-4.956-.944,9.09,9.09,0,0,1-4.717-4.394c-.68-1.417-1.459-2.82-2.228-4.2a53.327,53.327,0,0,1-2.893-5.728,3.675,3.675,0,0,1-.262-2.009,2.457,2.457,0,0,1,2.905-1.948,2.873,2.873,0,0,1,1.717,1.05Z" transform="translate(0 -59.866)" stroke="#000" stroke-width="0.5"/>
    </g>
  </g>
</svg>
