<svg xmlns="http://www.w3.org/2000/svg" width="33.584" height="25.834" viewBox="0 0 33.584 25.834">
  <g id="Group_8360" data-name="Group 8360" transform="translate(-33 -490)">
    <g id="Icon_ionic-ios-barcode" data-name="Icon ionic-ios-barcode" transform="translate(37.884 493.875)">
      <path id="Path_956" data-name="Path 956" d="M8.759,12.375A1.132,1.132,0,0,0,7.629,13.5V24.162a1.13,1.13,0,0,0,2.26,0V13.5A1.132,1.132,0,0,0,8.759,12.375Z" transform="translate(-7.629 -9.792)" fill="#faba27"/>
      <path id="Path_957" data-name="Path 957" d="M27.533,25.292a1.132,1.132,0,0,0,1.13-1.122V13.5a1.13,1.13,0,0,0-2.26,0V24.162A1.134,1.134,0,0,0,27.533,25.292Z" transform="translate(-4.847 -9.792)" fill="#faba27"/>
      <path id="Path_958" data-name="Path 958" d="M23.1,10.125a1.151,1.151,0,0,0-1.13,1.163V27.038a1.131,1.131,0,1,0,2.26,0V11.288A1.151,1.151,0,0,0,23.1,10.125Z" transform="translate(-5.503 -10.125)" fill="#faba27"/>
      <path id="Path_959" data-name="Path 959" d="M13.189,10.125a1.151,1.151,0,0,0-1.13,1.163V27.038a1.131,1.131,0,1,0,2.26,0V11.288A1.146,1.146,0,0,0,13.189,10.125Z" transform="translate(-6.973 -10.125)" fill="#faba27"/>
      <path id="Path_960" data-name="Path 960" d="M18.146,11.25a1.142,1.142,0,0,0-1.13,1.146V25.6a1.13,1.13,0,1,0,2.26,0V12.4A1.142,1.142,0,0,0,18.146,11.25Z" transform="translate(-6.238 -9.958)" fill="#faba27"/>
    </g>
    <path id="Path_961" data-name="Path 961" d="M9.317,30.324H6.023A.324.324,0,0,1,5.7,30V9.333a.324.324,0,0,1,.323-.323h3.27a1.189,1.189,0,0,0,1.187-1.13,1.061,1.061,0,0,0-.331-.807,1.443,1.443,0,0,0-.961-.323H4.828A1.319,1.319,0,0,0,3.375,8.042V31.292a1.251,1.251,0,0,0,1.372,1.292H9.293a1.087,1.087,0,0,0,.856-1.865A1.2,1.2,0,0,0,9.317,30.324Z" transform="translate(29.625 483.25)"/>
    <path id="Path_962" data-name="Path 962" d="M32.169,6.75H27.624a1.132,1.132,0,0,0-1.13,1.477.875.875,0,0,0,.065.153,1.143,1.143,0,0,0,1.041.63h3.294a.324.324,0,0,1,.323.323V29.993a.324.324,0,0,1-.323.323h-3.27a1.177,1.177,0,0,0-1.187,1.122,1.131,1.131,0,0,0,.331.84,1.112,1.112,0,0,0,.832.307h4.569a1.259,1.259,0,0,0,1.372-1.324V8.042A1.251,1.251,0,0,0,32.169,6.75Z" transform="translate(33.042 483.25)"/>
  </g>
</svg>
